<svg width="16" height="16" viewBox="0 0 16 16" fill="none" xmlns="http://www.w3.org/2000/svg">
<g clip-path="url(#clip0_6_9)">
<path fill-rule="evenodd" clip-rule="evenodd" d="M1.88501 0.510998C2.05999 0.336287 2.27009 0.200756 2.50141 0.113388C2.73273 0.0260198 2.97997 -0.0111912 3.22675 0.004221C3.47354 0.0196332 3.71423 0.0873167 3.93288 0.202786C4.15152 0.318256 4.34314 0.478874 4.49501 0.673998L6.29001 2.98C6.61901 3.403 6.73501 3.954 6.60501 4.474L6.05801 6.664C6.02973 6.77743 6.03126 6.89624 6.06245 7.00891C6.09364 7.12157 6.15343 7.22426 6.23601 7.307L8.69301 9.764C8.77585 9.84675 8.87871 9.90664 8.99156 9.93783C9.10442 9.96903 9.22344 9.97046 9.33701 9.942L11.526 9.395C11.7826 9.33084 12.0505 9.32585 12.3093 9.38042C12.5681 9.435 12.8111 9.54769 13.02 9.71L15.326 11.504C16.155 12.149 16.231 13.374 15.489 14.115L14.455 15.149C13.715 15.889 12.609 16.214 11.578 15.851C8.9392 14.9225 6.54329 13.4118 4.56801 11.431C2.5873 9.45601 1.07662 7.06046 0.148013 4.422C-0.213987 3.392 0.111013 2.285 0.851013 1.545L1.88501 0.510998Z" fill="white"/>
</g>
<defs>
<clipPath id="clip0_6_9">
<rect width="16" height="16" fill="white"/>
</clipPath>
</defs>
</svg>
